<svg width="16" height="16" viewBox="0 0 16 16" fill="none" xmlns="http://www.w3.org/2000/svg">
<path d="M7.33346 9.83333H8.00013C8.27346 9.83333 8.50013 9.60666 8.50013 9.33333C8.50013 9.06 8.27346 8.83333 8.00013 8.83333H7.33346C6.87346 8.83333 6.50013 8.46 6.50013 8V1.83333H12.0001C12.7868 1.83333 13.5068 2.25998 13.8935 2.94665C14.0268 3.18665 14.3335 3.27334 14.5735 3.14001C14.8135 3.00668 14.9001 2.7 14.7668 2.46C14.2068 1.46 13.1468 0.833328 12.0001 0.833328H6.00013C5.72679 0.833328 5.50013 1.05999 5.50013 1.33333V8C5.50013 9.01333 6.32013 9.83333 7.33346 9.83333Z" fill="#292D32"/>
<path d="M3.33335 13.8333H4.00002C4.27335 13.8333 4.50002 13.6067 4.50002 13.3333C4.50002 12.8733 4.87335 12.5 5.33335 12.5C5.79335 12.5 6.16669 12.8733 6.16669 13.3333C6.16669 13.6067 6.39335 13.8333 6.66669 13.8333H9.33335C9.60669 13.8333 9.83335 13.6067 9.83335 13.3333C9.83335 12.8733 10.2067 12.5 10.6667 12.5C11.1267 12.5 11.5 12.8733 11.5 13.3333C11.5 13.6067 11.7267 13.8333 12 13.8333H12.6667C14.0467 13.8333 15.1667 12.7133 15.1667 11.3333C15.1667 11.06 14.94 10.8333 14.6667 10.8333C14.3934 10.8333 14.1667 11.06 14.1667 11.3333C14.1667 12.16 13.4934 12.8333 12.6667 12.8333H12.4334C12.2134 12.0667 11.5067 11.5 10.6667 11.5C9.82669 11.5 9.12 12.0667 8.9 12.8333H7.09336C6.87336 12.0667 6.16668 11.5 5.32668 11.5C4.48668 11.5 3.78004 12.0667 3.56004 12.8333H3.33335C2.50669 12.8333 1.83335 12.16 1.83335 11.3333V9.83333H3.33335C3.97335 9.83333 4.50002 9.30666 4.50002 8.66666V6.66666C4.50002 6.02666 3.98002 5.49999 3.33335 5.49999L4.04669 4.25333C4.19336 3.99333 4.47334 3.83333 4.77334 3.83333H5.50002V8C5.50002 9.01333 6.32002 9.83333 7.33335 9.83333H8.00002C8.27335 9.83333 8.50002 9.60666 8.50002 9.33333C8.50002 9.06 8.27335 8.83333 8.00002 8.83333H7.33335C6.87335 8.83333 6.50002 8.46 6.50002 8V3.33333C6.50002 3.05999 6.27335 2.83333 6.00002 2.83333H4.77334C4.11334 2.83333 3.5067 3.18667 3.18003 3.76L2.04002 5.75333C1.95335 5.90666 1.95335 6.1 2.04002 6.25333C2.12668 6.40666 2.29337 6.5 2.47337 6.5H3.33335C3.42669 6.5 3.50002 6.57333 3.50002 6.66666V8.66666C3.50002 8.76 3.42669 8.83333 3.33335 8.83333H1.33335C1.06002 8.83333 0.833353 9.06 0.833353 9.33333V11.3333C0.833353 12.7133 1.95335 13.8333 3.33335 13.8333Z" fill="#292D32"/>
<path d="M10.6667 15.1667C11.68 15.1667 12.5 14.3467 12.5 13.3333C12.5 12.32 11.68 11.5 10.6667 11.5C9.65333 11.5 8.83333 12.32 8.83333 13.3333C8.83333 14.3467 9.65333 15.1667 10.6667 15.1667ZM10.6667 12.5C11.1267 12.5 11.5 12.8733 11.5 13.3333C11.5 13.7933 11.1267 14.1667 10.6667 14.1667C10.2067 14.1667 9.83333 13.7933 9.83333 13.3333C9.83333 12.8733 10.2067 12.5 10.6667 12.5Z" fill="#292D32"/>
<path d="M5.33335 15.1667C6.34669 15.1667 7.16669 14.3467 7.16669 13.3333C7.16669 12.32 6.34669 11.5 5.33335 11.5C4.32002 11.5 3.50002 12.32 3.50002 13.3333C3.50002 14.3467 4.32002 15.1667 5.33335 15.1667ZM5.33335 12.5C5.79335 12.5 6.16669 12.8733 6.16669 13.3333C6.16669 13.7933 5.79335 14.1667 5.33335 14.1667C4.87335 14.1667 4.50002 13.7933 4.50002 13.3333C4.50002 12.8733 4.87335 12.5 5.33335 12.5Z" fill="#292D32"/>
<path d="M1.33333 9.83333H3.33333C3.97333 9.83333 4.5 9.30667 4.5 8.66667V6.66667C4.5 6.02667 3.97333 5.5 3.33333 5.5H2.47335C2.29335 5.5 2.12666 5.59334 2.04 5.75334L0.899983 7.75334C0.859983 7.82667 0.833333 7.91333 0.833333 8V9.33333C0.833333 9.60667 1.06 9.83333 1.33333 9.83333ZM3.33333 6.5C3.42667 6.5 3.5 6.57333 3.5 6.66667V8.66667C3.5 8.76 3.42667 8.83333 3.33333 8.83333H1.83333V8.13334L2.76668 6.5H3.33333Z" fill="#292D32"/>
<path d="M10.6667 5.83333H14.6667C14.94 5.83333 15.1667 5.60666 15.1667 5.33333C15.1667 5.05999 14.94 4.83333 14.6667 4.83333H10.6667C10.3934 4.83333 10.1667 5.05999 10.1667 5.33333C10.1667 5.60666 10.3934 5.83333 10.6667 5.83333Z" fill="#292D32"/>
<path d="M12 7.83333H14.6667C14.94 7.83333 15.1667 7.60666 15.1667 7.33333C15.1667 7.05999 14.94 6.83333 14.6667 6.83333H12C11.7267 6.83333 11.5 7.05999 11.5 7.33333C11.5 7.60666 11.7267 7.83333 12 7.83333Z" fill="#292D32"/>
<path d="M13.3334 9.83333H14.6667C14.94 9.83333 15.1667 9.60666 15.1667 9.33333C15.1667 9.05999 14.94 8.83333 14.6667 8.83333H13.3334C13.06 8.83333 12.8334 9.05999 12.8334 9.33333C12.8334 9.60666 13.06 9.83333 13.3334 9.83333Z" fill="#292D32"/>
</svg>
