<svg width="24" height="16" viewBox="0 0 24 16" fill="none" xmlns="http://www.w3.org/2000/svg">
<path d="M22.2026 0.137939H1.79742C0.804703 0.137939 0 0.942643 0 1.93536V5.37931H24V1.93536C24 0.942643 23.1953 0.137939 22.2026 0.137939Z" fill="#FF4B55"/>
<path d="M0 14.0646C0 15.0573 0.804703 15.8621 1.79742 15.8621H22.2026C23.1952 15.8621 24 15.0574 24 14.0646V10.6207H0V14.0646Z" fill="#464655"/>
<path d="M24 5.37922H0V10.6203H24V5.37922Z" fill="#F5F5F5"/>
<path d="M13.3212 7.18297C13.3212 6.9778 13.1201 6.83286 12.9255 6.89778L12.5597 7.0197L12.4709 6.48331C12.4178 6.1633 12.1436 5.93103 11.819 5.93103H11.4769L11.1191 6.37147H11.5929L11.4603 7.02641L11.0744 6.89778C10.8797 6.83286 10.6787 6.9778 10.6787 7.18297V9.40836L11.2114 8.87572L10.9604 9.62858H10.6788V10.069H13.3212V9.62858H13.0396L12.7886 8.87572L13.3213 9.40836V7.18297H13.3212ZM11.7798 9.62853H11.4248L11.6689 8.97655L11.7798 9.11816V9.62853ZM12.2201 9.62853V9.11816L12.3311 8.97655L12.5752 9.62853H12.2201ZM12 8.8303C12 8.8303 11.3187 8.36923 11.3463 7.50908C11.3463 7.50908 11.7661 7.44026 12 7.06864C12.2339 7.44022 12.6537 7.50908 12.6537 7.50908C12.6813 8.36928 12 8.8303 12 8.8303Z" fill="#F0C727"/>
</svg>
