<svg width="24" height="17" viewBox="0 0 24 17" fill="none" xmlns="http://www.w3.org/2000/svg">
<path d="M0.535034 0.0788574H24.535V16.0789H0.535034V0.0788574Z" fill="#128807"/>
<path d="M16.9843 4.42233C17.199 4.65478 17.4186 4.90202 17.639 5.16016C17.6855 5.68638 17.6979 6.16898 17.745 6.69593C17.7384 6.92135 17.6596 7.22094 17.5848 7.2493C17.5848 7.2493 17.4709 7.30699 17.3946 7.243C17.3393 7.22336 17.1178 6.91747 17.1178 6.91747C17.0044 6.82585 16.929 6.85203 16.8484 6.91747C16.626 7.10653 16.5253 7.4609 16.3742 7.70499C16.3351 7.75952 16.2253 7.80582 16.1034 7.70062C15.8494 7.39497 15.9251 6.98413 15.9396 6.92038C15.9388 6.92377 15.938 6.92717 15.9361 6.93322C15.66 7.20712 15.7822 7.66136 15.8447 7.75904C15.9358 7.9195 16.0093 8.02203 16.1865 8.10153C16.3478 8.206 16.4735 8.1408 16.5426 8.0676C16.705 7.9195 16.7072 7.54041 16.7834 7.46551C16.8368 7.32783 16.9708 7.35159 17.036 7.41243C17.0993 7.49266 17.1742 7.54477 17.2672 7.5884C17.4186 7.70596 17.5994 7.72729 17.7774 7.62015C17.8991 7.56004 17.9781 7.48175 18.0493 7.32759C18.1258 7.1475 18.0881 6.2034 18.0711 5.67839C18.1856 5.82018 18.2984 5.96513 18.4104 6.11202C18.4597 6.57304 18.4819 7.02703 18.4657 7.46236C18.4542 7.54889 18.8086 7.20397 18.8064 7.04036C18.8048 6.89735 18.8067 6.76768 18.8064 6.64721C18.9784 6.88911 19.1449 7.13489 19.3023 7.38382C19.3997 7.33825 19.3664 6.85203 19.3048 6.78488C19.14 6.54128 18.9291 6.27829 18.7657 6.07469C18.7335 5.81776 18.6894 5.51453 18.6694 5.4217C18.6383 5.27699 18.6069 5.05933 18.5598 4.88747C18.5469 4.82033 18.5078 4.60606 18.5202 4.58546C18.5395 4.53747 18.6121 4.58691 18.6479 4.53141C18.7013 4.48002 18.4624 3.93441 18.341 3.77879C18.2976 3.70899 18.2186 3.73323 18.1209 3.84666C18.0303 3.92132 18.0634 4.09172 18.098 4.25363C18.1878 4.66666 18.2681 5.0872 18.3314 5.50653C18.2139 5.35262 18.0705 5.1667 17.9293 4.9871C17.9255 4.96989 17.9112 4.90638 17.9112 4.90541C17.9112 4.8979 17.8916 4.56752 17.8751 4.48875C17.8721 4.45675 17.8636 4.44754 17.9015 4.45166C17.9417 4.48148 17.9475 4.48317 17.9725 4.49311C18.0133 4.49965 18.0488 4.43906 18.0243 4.38282C17.8982 4.17825 17.7725 3.9727 17.6464 3.76813C17.6313 3.75504 17.6142 3.74122 17.5947 3.73856C17.5752 3.73589 17.5537 3.74438 17.5298 3.77564C17.4838 3.81103 17.4343 3.87551 17.4359 3.95792C17.4472 4.10335 17.4764 4.25242 17.4876 4.39785C17.4915 4.41724 17.4959 4.43663 17.4998 4.45627C17.4819 4.43639 17.4665 4.42088 17.4576 4.41288C17.1357 4.11499 17.6054 4.36416 17.3963 4.13413C17.2193 3.96301 17.1676 3.90847 17.0159 3.80546C16.94 3.76231 16.894 3.67966 16.869 3.82024C16.8591 3.94386 16.8486 4.08711 16.8583 4.19134C16.8574 4.24927 16.9257 4.35834 16.9843 4.42233Z" fill="white"/>
<path d="M9.05468 6.61102C9.05111 6.66483 9.22366 6.73027 9.23412 6.85486C9.25888 6.90624 9.19724 7.07058 9.24843 7.08585C9.29548 7.10306 9.36098 6.97217 9.38575 6.85049C9.39951 6.78384 9.32658 6.5509 9.20274 6.50921C9.18375 6.50558 9.16366 6.50364 9.14385 6.50509C9.08413 6.50849 9.03074 6.53684 9.05468 6.61102Z" fill="white"/>
<path d="M17.5014 5.70982C17.4972 5.70909 17.4928 5.70933 17.4882 5.71079C17.4882 5.71079 16.7542 6.1706 16.736 6.18659C16.6631 6.24355 16.6997 6.44401 16.736 6.42074C16.7886 6.43843 17.5275 5.99753 17.5135 5.9459C17.5457 5.94784 17.5611 5.71927 17.5014 5.70982Z" fill="white"/>
<path d="M18.8512 4.66126C18.8771 4.73107 18.8122 4.95625 18.8655 4.97709C18.9148 5.00036 18.9842 4.82148 19.01 4.65593C19.0243 4.56528 18.9481 4.24726 18.8188 4.19055C18.8089 4.18812 18.7981 4.18667 18.7874 4.18618C18.7134 4.184 18.6327 4.23345 18.6646 4.3304C18.6459 4.38349 18.8226 4.5631 18.8512 4.66126Z" fill="white"/>
<path d="M17.0883 5.71515C17.091 5.58377 17.1054 5.40925 17.1136 5.30066C17.1172 5.2597 17.1279 5.21462 17.1725 5.20419C17.2171 5.19401 17.2944 5.2437 17.2952 5.20104C17.287 5.11742 17.2683 4.99429 17.2146 4.93611C17.1871 4.90024 17.1422 4.88085 17.0955 4.87891C17.0178 4.87552 16.935 4.91987 16.9138 5.01343C16.9141 5.0687 16.9422 5.099 16.9367 5.14917C16.9284 5.17777 16.8951 5.19668 16.815 5.16299C16.8274 5.15281 16.7633 5.07282 16.7633 5.07282C16.7008 5.03937 16.6177 5.07452 16.5635 5.10578C16.5338 5.15353 16.5117 5.23522 16.5453 5.31884C16.635 5.46427 16.9419 5.71272 17.0883 5.71515Z" fill="white"/>
<path d="M13.9667 6.57158L13.9678 6.57061C13.9678 6.57036 13.9689 6.56964 13.9689 6.56964C13.9692 6.56939 13.97 6.56867 13.97 6.56867C13.97 6.56843 13.97 6.56697 13.97 6.56649C13.9703 6.56406 13.97 6.55994 13.9689 6.55582L13.899 6.51971L12.5236 6.51437C12.5065 6.50856 12.4938 6.50274 12.4861 6.49741C12.4856 6.49692 12.4842 6.49571 12.4837 6.49522C12.4834 6.49498 12.4828 6.49425 12.4826 6.49425C12.4823 6.49425 12.4814 6.49353 12.4814 6.49328C12.4812 6.4928 12.4803 6.49159 12.4803 6.4911L12.4792 6.49013V6.48916L12.4781 6.48819V6.48722V6.48626V6.48529C12.4781 6.48504 12.4781 6.48432 12.4781 6.48432C12.4781 6.48432 12.4781 6.48359 12.4781 6.48335V6.48238V6.48141V6.48044C12.4784 6.4802 12.4792 6.47947 12.4792 6.47947C12.4795 6.47898 12.4801 6.47801 12.4803 6.47729C12.487 6.46929 12.5032 6.46177 12.5236 6.45499C12.8519 6.41548 13.4356 6.33137 13.4744 5.83714C13.4683 5.57973 13.3494 5.41102 12.9906 5.36449C12.7269 5.38242 12.539 5.60687 12.5692 5.85411C12.5566 5.92077 12.5948 6.05141 12.5175 6.0662C12.012 6.10692 11.4602 6.38591 11.4417 6.58563H11.4406C11.4404 6.58588 11.4395 6.5866 11.4395 6.5866C11.4393 6.58685 11.4379 6.58733 11.4371 6.58757C11.4368 6.58757 11.4351 6.58757 11.4346 6.58757C11.4338 6.58782 11.4318 6.58854 11.431 6.58854C11.4307 6.58854 11.4302 6.58854 11.4299 6.58854C11.4291 6.58854 11.428 6.58854 11.4274 6.58854C11.4272 6.58854 11.4266 6.58854 11.4263 6.58854C11.4258 6.58854 11.4244 6.58854 11.4239 6.58854C11.4225 6.5883 11.4203 6.58782 11.4192 6.58757C11.3861 6.57957 11.344 6.53182 11.3506 6.46468C11.3314 6.11952 11.204 5.72879 11.0042 5.42799C10.9329 5.36521 10.9018 5.33976 10.8814 5.33685C10.8809 5.33685 10.8798 5.33685 10.879 5.33685C10.8781 5.33685 10.8765 5.33685 10.8754 5.33685C10.8751 5.33685 10.8743 5.33685 10.8743 5.33685H10.8732C10.8729 5.33685 10.8721 5.33685 10.8721 5.33685C10.8699 5.33758 10.8679 5.33904 10.866 5.34001C10.8652 5.34049 10.8633 5.34146 10.8624 5.34219C10.847 5.35237 10.8286 5.37612 10.7879 5.40157C10.7191 5.47065 10.7067 5.51864 10.7108 5.65705C10.7147 5.67159 10.8415 5.98233 10.9491 6.20072C11.0215 6.42784 11.0887 6.68768 11.0394 6.93322C10.8696 7.25777 10.5286 7.54888 10.1995 7.70692C10.0319 7.75418 9.88686 7.73819 9.84805 7.70595C9.84778 7.70571 9.84723 7.70522 9.84695 7.70498C9.75063 7.64802 9.74843 7.54646 9.75421 7.52901V7.52804C9.75448 7.5278 9.75531 7.52707 9.75531 7.52707C10.033 7.35667 10.3506 7.21875 10.5988 6.7587C10.6723 6.58297 10.6946 6.47729 10.6216 6.20533C10.5933 6.10401 10.5581 6.02063 10.4796 5.94888C10.4799 5.94864 10.4807 5.94791 10.4807 5.94791C10.5281 5.92804 10.6508 6.00754 10.6698 5.95737C10.6406 5.82745 10.541 5.65317 10.4279 5.56421C10.3288 5.48495 10.2212 5.47574 10.1307 5.54822C10.0286 5.59815 10.0068 5.77776 10.0561 5.93507C10.1106 6.05335 10.2581 6.0742 10.363 6.31246V6.31343C10.3652 6.32846 10.399 6.49135 10.3462 6.55728C10.3032 6.67508 9.75228 7.05781 9.7132 7.08083C9.71265 7.08132 9.7099 7.08253 9.70963 7.08301C9.70935 7.08326 9.70853 7.08398 9.70853 7.08398C9.70853 7.08398 9.7077 7.08471 9.70743 7.08495L9.70632 7.08592H9.70522C9.70522 7.08592 9.7044 7.08592 9.70412 7.08592C9.70385 7.08568 9.70302 7.08495 9.70302 7.08495V7.08398C9.70275 7.0835 9.70192 7.08229 9.70192 7.0818C9.70027 7.07235 9.7033 7.04787 9.70192 7.0086C9.69834 6.93685 9.73192 6.7747 9.72972 6.74682V6.74585C9.72944 6.74561 9.72862 6.74488 9.72862 6.74488V6.74391C9.72834 6.74391 9.72751 6.74391 9.72751 6.74391C9.54533 6.84741 9.48506 7.16494 9.45204 7.25899C8.9908 7.53967 8.46709 7.74837 8.16547 8.03269C8.00833 8.24866 9.24784 7.78448 9.39177 7.72849C9.39287 7.72922 9.39425 7.73067 9.39535 7.73164C9.42259 7.75806 9.42507 7.85066 9.50735 7.93404C9.63615 8.08771 9.90997 8.18248 10.1764 8.12383C10.6233 7.98154 10.8806 7.71346 11.1429 7.41581C11.1803 7.36782 11.2389 7.33001 11.2934 7.36709C11.4734 7.72219 11.9927 7.975 12.6642 8.00094C12.8197 7.83466 12.7454 7.75273 12.6823 7.71783C12.6628 7.70643 12.3485 7.59857 12.2995 7.49095C12.2687 7.39085 12.3436 7.30213 12.4933 7.23548C12.9242 7.18966 13.3481 7.13852 13.7581 7.02242C13.7622 6.90098 13.8434 6.71968 13.8976 6.6409C13.9334 6.58467 13.9576 6.57933 13.9667 6.57158ZM12.8323 5.81072C12.8332 5.80684 12.8351 5.80345 12.8373 5.80006C12.8381 5.79884 12.8387 5.79691 12.8398 5.79569C12.84 5.79545 12.8409 5.79497 12.8409 5.79472C12.8425 5.79303 12.845 5.79085 12.8469 5.78939C12.8557 5.78333 12.8681 5.77897 12.8819 5.77776C12.9119 5.77485 12.9512 5.78382 12.9889 5.80321C13.0437 5.83108 13.0775 5.87326 13.0731 5.9038C13.0729 5.90453 13.0734 5.90622 13.0731 5.90695C13.0729 5.90768 13.0709 5.90937 13.0707 5.9101C13.0704 5.91083 13.0698 5.91252 13.0696 5.91325C13.0693 5.91374 13.0687 5.91495 13.0685 5.91543C13.0682 5.91592 13.0676 5.91713 13.0674 5.91761C13.0654 5.92028 13.0627 5.92295 13.0602 5.92513C13.0338 5.9467 12.973 5.94379 12.9157 5.91446C12.8615 5.88683 12.8279 5.84441 12.8315 5.81387C12.8312 5.81315 12.8321 5.81145 12.8323 5.81072ZM12.2825 7.02411C12.135 7.06871 11.993 7.10337 11.9924 7.29122C12.0117 7.3843 12.0078 7.43302 11.9913 7.45556C11.9899 7.45726 11.988 7.45944 11.9864 7.4609C11.9861 7.46114 11.9853 7.46187 11.9853 7.46187C11.985 7.46211 11.9842 7.46284 11.9842 7.46284C11.9839 7.46308 11.9833 7.4638 11.9831 7.4638L11.982 7.46477C11.9814 7.46502 11.98 7.46574 11.9795 7.46574C11.9773 7.46696 11.9745 7.46817 11.9723 7.46889C11.9704 7.46962 11.9674 7.46962 11.9652 7.46986C11.9299 7.47447 11.879 7.4449 11.8413 7.42745C11.7502 7.37 11.4949 7.23063 11.4585 6.93128C11.4533 6.86365 11.5108 6.80548 11.603 6.7999C11.6074 6.79966 11.6115 6.7999 11.6162 6.7999H11.6187C11.772 6.83651 11.9979 6.84038 12.1939 6.85832C12.3532 6.86777 12.4319 6.97782 12.2825 7.02411Z" fill="white"/>
<path d="M11.827 5.85169C11.9855 5.91811 12.3628 5.87908 12.2711 5.66409C12.2711 5.64421 12.2651 5.57731 12.2626 5.55913C12.2464 5.52592 12.2167 5.51332 12.188 5.51768C12.1594 5.52205 12.1319 5.54289 12.122 5.57707C12.1157 5.59961 12.1341 5.6367 12.1112 5.64809C12.098 5.65997 12.0466 5.65294 12.0488 5.59088C12.0488 5.57101 12.0323 5.54944 12.0224 5.53683C12.0125 5.53102 12.0067 5.52932 11.9885 5.52932C11.9665 5.53005 11.9657 5.53514 11.9536 5.55162C11.9483 5.56834 11.9415 5.58458 11.9415 5.60349C11.9387 5.62555 11.9299 5.63306 11.9115 5.63645C11.8908 5.63645 11.8958 5.63839 11.879 5.62894C11.8691 5.61949 11.8561 5.61561 11.8561 5.59937C11.8561 5.5824 11.8523 5.5555 11.8465 5.54435C11.8377 5.53417 11.8226 5.5298 11.8069 5.52641C11.7205 5.52665 11.7152 5.61318 11.7202 5.64615C11.7133 5.65221 11.7089 5.80855 11.827 5.85169Z" fill="white"/>
<path d="M17.5413 11.6511C17.4466 11.6637 17.1813 11.6872 17.1813 11.6872C16.8745 11.655 16.6491 11.6519 16.304 11.6407C16.3359 11.6051 16.3921 11.4609 16.3233 11.4085C16.3054 11.3954 16.2784 11.3881 16.2415 11.3906C16.2412 11.3906 16.2407 11.3906 16.2404 11.3906C16.2399 11.3906 16.2385 11.3906 16.2379 11.3906C16.2377 11.3906 16.2368 11.3896 16.2368 11.3896C16.2357 11.3894 16.2341 11.3891 16.2333 11.3886C16.2313 11.3874 16.2289 11.3852 16.2272 11.3833C16.2269 11.3828 16.2253 11.3816 16.2247 11.3811C16.2074 11.3588 16.1978 11.3038 16.1862 11.29C16.1862 11.2897 16.1851 11.289 16.1851 11.289L16.184 11.288C16.1835 11.2878 16.1821 11.2871 16.1815 11.2871C16.1813 11.2871 16.1804 11.2871 16.1804 11.2871C16.1802 11.2871 16.1793 11.2871 16.1793 11.2871C16.1791 11.2873 16.1785 11.2878 16.1782 11.288C15.9498 11.3397 15.957 11.5484 16.1036 11.64C13.6932 11.64 9.99391 11.6039 9.20051 11.6039C8.75661 11.6039 7.35253 11.5573 7.32556 11.5573C7.62663 11.9451 8.06283 12.0242 8.63387 12.0322C9.70467 12.0322 14.6654 12.0205 16.0772 12.0205C15.9768 12.1776 16.0863 12.4302 16.165 12.4762C16.1667 12.4772 16.1694 12.4786 16.1711 12.4794C16.1741 12.4806 16.178 12.4818 16.1807 12.4825C16.1815 12.4828 16.1835 12.4825 16.1843 12.4825C16.2778 12.5019 16.3189 12.4423 16.3502 12.3989C16.5019 12.4108 17.3553 12.4214 17.4334 12.3979C17.4337 12.3979 17.4342 12.397 17.4345 12.397C17.4874 12.4653 17.5396 12.53 17.6404 12.5189C17.8162 12.4857 17.9549 12.4687 17.9593 12.1543C17.9591 12.1536 17.9409 11.6174 17.5413 11.6511ZM17.3693 12.2256C17.3676 12.2263 17.3649 12.2273 17.3632 12.2278C17.3619 12.228 17.3597 12.2278 17.3586 12.2278C17.3572 12.2278 17.355 12.228 17.3539 12.2278C17.2394 12.2253 17.1734 12.2229 17.0589 12.2203C17.0586 12.2152 17.058 12.2098 17.0564 12.2055C17.0291 12.1347 16.8329 12.1395 16.7867 12.1948C16.7861 12.1955 16.7848 12.1972 16.7842 12.198C16.7834 12.1992 16.7826 12.2011 16.7817 12.2023C16.7809 12.2038 16.7798 12.2062 16.7793 12.2077C16.7784 12.2098 16.7784 12.2127 16.7782 12.2152C16.7779 12.2176 16.7768 12.221 16.7771 12.2237C16.6227 12.2399 16.4837 12.219 16.3293 12.2142C16.2839 12.1645 16.2894 12.0746 16.3425 12.053C16.3428 12.0528 16.3433 12.0533 16.3436 12.053C16.6953 12.068 17.0258 12.0559 17.3773 12.0709C17.4334 12.1126 17.4056 12.2081 17.3693 12.2256Z" fill="white"/>
<path d="M13.2405 7.92221C13.2405 7.92754 13.3024 7.97432 13.3753 7.93699C13.5289 7.88536 13.6247 7.83519 13.8399 7.79398C13.8963 7.79301 13.893 7.65994 13.8038 7.65509C13.6874 7.66018 13.5798 7.66552 13.4631 7.74623C13.3916 7.76077 13.3792 7.72248 13.3632 7.68782C13.3451 7.60225 13.4042 7.54214 13.3921 7.47791C13.3954 7.48082 13.3561 7.44955 13.3054 7.44713C13.2887 7.4464 13.2708 7.44858 13.2526 7.45658C13.249 7.45658 13.0905 7.55087 13.0396 7.61655C13.0085 7.6374 13.0121 7.65558 13.0217 7.69169C13.0459 7.7409 13.0886 7.72539 13.1373 7.70236C13.2017 7.6946 13.2328 7.73169 13.2276 7.7998C13.1976 7.88536 13.2405 7.91687 13.2405 7.92221Z" fill="white"/>
<path d="M18.5551 7.88837C18.5251 7.85808 18.4574 7.87626 18.412 7.87141C18.3902 7.87141 18.3192 7.8622 18.3531 7.80669C18.3814 7.77227 18.3916 7.75167 18.4109 7.70925C18.4323 7.6678 18.4136 7.63968 18.3363 7.61714C18.2969 7.61084 18.2697 7.6089 18.2413 7.60963C18.2127 7.61036 18.1827 7.61399 18.139 7.61714C18.0919 7.62587 18.0754 7.64405 18.0669 7.69446C18.0702 7.77082 18.1233 7.76694 18.1775 7.79724C18.2089 7.83238 18.2295 7.86438 18.175 7.92231C18.1235 7.96376 18.0869 7.98678 18.0355 8.02823C18.0113 8.06483 17.9961 8.12082 18.0704 8.13852C18.2078 8.17245 18.5253 7.99066 18.5253 7.98703C18.5762 7.95309 18.5592 7.88837 18.5551 7.88837Z" fill="white"/>
<path d="M16.1011 7.5273C16.2115 7.52802 16.3392 7.30503 16.3937 7.08421C16.4237 6.78026 16.3739 6.59507 16.3648 6.41643C16.356 6.2378 16.135 4.78783 16.0904 4.65258C16.0365 4.39686 16.3051 4.61889 16.2756 4.47031C16.1829 4.28294 15.9512 4.01001 15.8785 3.84713C15.8513 3.8035 15.848 3.76326 15.8257 3.76665C15.8122 3.76859 15.7926 3.78653 15.7558 3.82919C15.6652 4.09 15.6333 4.30306 15.668 4.46522C15.9008 5.53463 16.1391 6.50903 16.1011 7.5273Z" fill="white"/>
<path d="M19.5409 4.69508C19.5304 4.62769 19.4966 4.47257 19.5095 4.45245C19.5304 4.40494 19.6366 4.4573 19.6743 4.40252C19.7297 4.35258 19.4 3.98076 19.2844 3.82176C19.2613 3.78176 19.2472 3.74904 19.2266 3.75074C19.2106 3.75219 19.1914 3.77473 19.1616 3.83024C19.0901 3.93325 19.0656 4.11771 19.0942 4.28084C19.2662 5.30541 19.3939 6.29726 19.4203 7.20524C19.4055 7.29153 19.4013 7.33734 19.3554 7.44593C19.2538 7.56058 19.1418 7.70408 19.0364 7.7734C18.931 7.84272 18.7067 7.90865 18.6333 7.96004C18.4004 8.07857 18.3993 8.21479 18.5876 8.21964C18.9118 8.18643 19.2957 8.16316 19.5599 7.81145C19.6306 7.71305 19.714 7.44593 19.7175 7.28257C19.7423 6.32441 19.7038 5.38758 19.5409 4.69508Z" fill="white"/>
<path d="M17.397 6.95623C17.4463 6.9795 17.5762 6.83892 17.5715 6.6627C17.5858 6.57205 17.5349 6.23804 17.4056 6.18156C17.3907 6.17793 17.3742 6.17671 17.3585 6.17841C17.2908 6.18568 17.2267 6.24216 17.2561 6.33208C17.2374 6.38492 17.3478 6.56987 17.3764 6.66803C17.4023 6.73784 17.3434 6.93539 17.397 6.95623Z" fill="white"/>
<path d="M7.18328 4.11957C7.3418 4.18598 7.63874 4.15786 7.62608 3.93293C7.62608 3.91305 7.62113 3.84615 7.61892 3.82797C7.60269 3.79501 7.57297 3.7824 7.54462 3.78677C7.516 3.79113 7.48848 3.81197 7.47857 3.84615C7.47224 3.86869 7.48958 3.90578 7.46646 3.91717C7.45325 3.92881 7.40289 3.92105 7.40509 3.85876C7.40509 3.83888 7.38858 3.81828 7.37867 3.80567C7.36877 3.79986 7.36189 3.79816 7.34372 3.79816C7.32171 3.79889 7.32198 3.80398 7.30987 3.82046C7.30437 3.83718 7.29749 3.85342 7.29749 3.87233C7.29474 3.89439 7.28455 3.9019 7.26612 3.90529C7.24548 3.90529 7.25043 3.90723 7.23364 3.89778C7.22374 3.88833 7.2119 3.88445 7.2119 3.86821C7.2119 3.85124 7.20695 3.82434 7.20117 3.81319C7.19236 3.80301 7.1786 3.79767 7.16264 3.79404C7.07623 3.79428 7.0699 3.88178 7.07485 3.91499C7.06852 3.92105 7.0655 4.07642 7.18328 4.11957Z" fill="white"/>
<path d="M9.57645 4.84793C9.55691 4.84623 9.53131 4.85253 9.50187 4.86805C9.36179 4.9347 9.30757 5.13273 9.39481 5.2486C9.47627 5.35064 9.60507 5.31331 9.62213 5.31331C9.75945 5.32834 9.84119 5.08644 9.84119 5.08644C9.84119 5.08644 9.84532 5.01833 9.6824 5.14679C9.61387 5.15818 9.60452 5.13637 9.58745 5.10219C9.57314 5.03917 9.57617 4.97542 9.60919 4.9124C9.62405 4.87483 9.60892 4.85084 9.57645 4.84793Z" fill="white"/>
<path d="M15.2733 7.30894C15.0185 7.54309 14.6514 7.83201 14.2515 7.96508C14.2086 8.0075 14.3586 8.18881 14.5523 8.18881C14.8765 8.1556 15.1616 7.99538 15.4261 7.5729C15.4968 7.47449 15.6209 7.26362 15.6245 7.10025C15.6493 6.14209 15.5697 5.39723 15.4065 4.70473C15.3961 4.63735 15.4032 4.5576 15.4162 4.53724C15.4371 4.51518 15.5084 4.53772 15.5461 4.48319C15.6014 4.43326 15.398 4.01998 15.2824 3.86098C15.2593 3.82098 15.2453 3.78923 15.2246 3.79093C15.2087 3.79238 15.1894 3.81396 15.1597 3.86946C15.0881 3.97248 15.0397 4.15184 15.0452 4.32006C15.1999 5.26343 15.2475 6.089 15.3485 7.03262C15.3573 7.12351 15.3421 7.2561 15.2733 7.30894Z" fill="white"/>
<path d="M6.45375 5.89435C6.07342 5.90041 5.51642 6.33355 5.50183 6.57376C5.90307 6.40409 6.29744 6.24072 6.70528 6.06499C6.63951 5.97846 6.70143 5.90065 6.45375 5.89435Z" fill="white"/>
<path d="M5.71618 7.6719C5.61628 7.85078 5.57445 7.72837 5.56564 7.62851C5.55023 7.43896 5.57115 7.26444 5.59454 7.12604C5.60692 7.05526 5.60665 7.0303 5.59702 7.03054C5.58739 7.03078 5.5684 7.05599 5.5428 7.08459C5.31659 7.40212 5.2965 7.87599 5.42116 8.0173C5.48749 8.0842 5.59674 8.11353 5.67738 8.09244C5.81965 8.03815 5.88213 7.78461 5.84828 7.69177C5.80122 7.62657 5.76351 7.61639 5.71618 7.6719Z" fill="white"/>
<path d="M5.75885 5.60475C6.22119 5.64377 5.9658 4.91637 6.13312 4.78427C6.16477 4.71907 6.22339 4.71785 6.22807 4.80026V5.41811C6.22394 5.61905 6.37392 5.67868 6.49033 5.72013C6.61142 5.71188 6.69178 5.71479 6.73939 5.81878C6.75838 6.17509 6.77819 6.53212 6.79718 6.88819C6.79718 6.88819 7.07734 6.95921 7.09082 6.28707C7.10431 5.89246 7.00166 5.56136 7.06193 5.48477C7.06413 5.40938 7.17366 5.40551 7.24961 5.44235C7.37043 5.51749 7.42409 5.60984 7.61178 5.57275C7.89744 5.50343 8.06971 5.38127 8.07384 5.18808C8.05705 5.00436 8.03311 4.82063 7.94257 4.6369C7.95523 4.60345 7.8878 4.51667 7.90046 4.48322C7.95192 4.554 8.02953 4.54818 8.04742 4.48322C7.99871 4.34215 7.92303 4.2069 7.80084 4.14824C7.69984 4.06971 7.55178 4.08643 7.49757 4.25004C7.47252 4.43862 7.57517 4.6621 7.73094 4.84462C7.76396 4.91588 7.81047 5.03465 7.78983 5.1413C7.707 5.18299 7.62471 5.16554 7.55509 5.10107C7.55509 5.10107 7.32749 4.95103 7.32749 4.91758C7.38776 4.57727 7.34043 4.53824 7.30713 4.44371C7.28374 4.31331 7.21356 4.2721 7.15659 4.1829C7.09963 4.12982 7.02257 4.12982 6.98569 4.1829C6.88525 4.33633 6.93231 4.66598 7.00496 4.8136C7.05752 4.94933 7.13788 5.03417 7.0999 5.03417C7.0688 5.11101 7.00358 5.09307 6.9568 5.0046C6.88965 4.8216 6.87616 4.54891 6.87616 4.42578C6.85607 4.27331 6.83351 3.94779 6.71985 3.86513C6.68958 3.82878 6.65353 3.81593 6.61885 3.81956C6.57399 3.82417 6.53189 3.85617 6.5118 3.89907C6.50437 4.05032 6.50327 4.20157 6.52253 4.34094C6.60069 4.58551 6.62546 4.80075 6.66343 5.05114C6.67389 5.3866 6.44355 5.19633 6.45401 5.03005C6.50712 4.81408 6.49281 4.47401 6.44547 4.38772C6.40805 4.30143 6.36457 4.28034 6.27347 4.2944C6.2011 4.29052 6.01396 4.46989 5.96167 4.76706C5.96167 4.76706 5.91819 4.91952 5.8992 5.05526C5.87361 5.20869 5.7583 5.31752 5.67766 5.03417C5.60804 4.82814 5.56538 4.32082 5.44897 4.43959C5.41622 4.83614 5.37659 5.53324 5.75885 5.60475Z" fill="white"/>
<path d="M5.91383 4.11089C5.93805 4.16422 5.88989 4.33559 5.94025 4.35159C5.98676 4.36928 6.0506 4.23282 6.0751 4.10677C6.08858 4.03769 6.0784 3.80112 5.89567 3.75265C5.88631 3.75071 5.87668 3.74974 5.86677 3.74949C5.79687 3.7478 5.72009 3.78585 5.75009 3.85978C5.73275 3.89978 5.88686 4.036 5.91383 4.11089Z" fill="white"/>
<path d="M8.55321 7.19489C8.71806 6.71157 8.54991 6.34726 8.60495 6.30242C8.6055 6.30218 8.60688 6.30169 8.60743 6.30145C8.60798 6.30121 8.60935 6.30072 8.60991 6.30048C8.61046 6.30024 8.61183 6.29951 8.61238 6.29951C8.61431 6.29902 8.61734 6.29854 8.61954 6.29854C8.82291 6.49148 9.10829 6.32302 9.17077 6.25612C9.19746 6.22267 9.26461 6.2011 9.31167 6.24449C9.47018 6.34483 9.74841 6.29757 9.8062 6.12038C9.83978 5.94732 9.86812 5.76892 9.87473 5.58398C9.77153 5.61234 9.68814 5.63343 9.65457 5.66445C9.64659 5.67221 9.64053 5.68069 9.63888 5.6899C9.6298 5.74105 9.62127 5.79243 9.61246 5.84358C9.61136 5.8477 9.60999 5.85182 9.60778 5.85521C9.60338 5.86151 9.59623 5.86733 9.58852 5.87121C9.55192 5.88866 9.48835 5.87872 9.48504 5.83194C9.43578 5.63512 9.23379 5.60967 9.11077 5.9146C9.02821 5.9735 8.8774 5.98513 8.86171 5.89666C8.8818 5.69209 8.78824 5.66445 8.60055 5.76092C8.54028 5.35565 8.48029 4.96856 8.42002 4.56329C8.49817 4.56135 8.57 4.61128 8.64155 4.5325C8.56422 4.32066 8.40048 3.88921 8.30828 3.84873C8.30746 3.84849 8.30663 3.848 8.30581 3.84776C8.30168 3.8434 8.29673 3.83927 8.2926 3.83612C8.29095 3.83491 8.2882 3.83297 8.28654 3.832C8.28489 3.83103 8.28214 3.82958 8.28049 3.82885C8.27691 3.82716 8.27223 3.8257 8.26838 3.82449C8.25985 3.82231 8.25187 3.82134 8.24306 3.82231C8.22022 3.82497 8.19463 3.83637 8.16491 3.84243C8.06666 3.87006 7.97474 3.94471 8.00364 4.09039C8.11977 4.71211 8.19545 5.18671 8.31159 5.80867C8.32948 5.88139 8.26013 5.97738 8.17096 5.96768C8.01905 5.87703 7.98135 5.69378 7.72211 5.70154C7.53442 5.70348 7.32031 5.88333 7.29362 6.05664C7.26225 6.19431 7.25124 6.34362 7.29362 6.4636C7.42544 6.60322 7.58341 6.58843 7.72211 6.55692C7.83604 6.51572 7.92988 6.41682 7.97006 6.44034C7.97006 6.44034 7.97116 6.44009 7.97116 6.44034C7.97116 6.44058 7.97116 6.44131 7.97116 6.44131C7.99593 6.4796 7.96869 6.80295 7.43452 7.05285C7.10621 7.18277 6.84477 7.21379 6.70414 6.97771C6.6169 6.8301 6.71047 6.268 6.49581 6.39792C5.86147 7.83843 7.98217 8.03937 8.21912 6.4573C8.23453 6.4127 8.28131 6.36786 8.31406 6.37877C8.32865 6.3841 8.34186 6.40155 8.34654 6.43379C8.29728 7.8663 6.70579 7.96447 6.43554 7.51387C6.36839 7.4077 6.3483 7.17113 6.3417 7.02958C6.32959 6.94377 6.3051 6.89433 6.27675 6.87494C6.21235 6.83228 6.12567 6.94353 6.10695 7.13671C6.07998 7.29209 6.08769 7.33475 6.08769 7.4843C6.17218 8.61576 8.22022 8.12953 8.55321 7.19489ZM7.76201 6.21588V6.21685C7.76174 6.21734 7.76119 6.21855 7.76091 6.21904C7.74495 6.23721 7.68881 6.2297 7.6489 6.2297C7.60074 6.22776 7.5768 6.22073 7.5479 6.18631C7.53414 6.14777 7.57625 6.10996 7.59496 6.08136C7.59524 6.08112 7.59607 6.08063 7.59607 6.08039C7.59799 6.07772 7.60129 6.07457 7.6046 6.07191C7.61891 6.06027 7.64395 6.04937 7.67064 6.04646C7.67587 6.04597 7.68083 6.04524 7.68633 6.04549C7.72348 6.04597 7.76284 6.06197 7.78375 6.10802C7.80247 6.14971 7.78458 6.19383 7.76201 6.21588Z" fill="white"/>
<path d="M14.5345 5.13516C14.693 5.20158 14.991 5.17249 14.9787 4.94755C14.9787 4.92768 14.9726 4.86078 14.9701 4.8426C14.9539 4.80939 14.9242 4.79679 14.8955 4.80115C14.8669 4.80552 14.8394 4.82733 14.8295 4.86151C14.8232 4.88405 14.8416 4.92016 14.8188 4.93156C14.8056 4.94343 14.7541 4.9364 14.7563 4.87435C14.7563 4.85448 14.7398 4.83291 14.7299 4.8203C14.72 4.81448 14.7131 4.81279 14.6949 4.81279C14.6729 4.81351 14.6735 4.8186 14.6613 4.83509C14.6561 4.85181 14.6492 4.86805 14.6492 4.88696C14.6465 4.90902 14.6377 4.91653 14.6192 4.91992C14.5986 4.91992 14.6022 4.92186 14.5857 4.91241C14.5758 4.90296 14.5639 4.89908 14.5639 4.88284C14.5639 4.86587 14.559 4.83897 14.5532 4.82782C14.5444 4.81764 14.5306 4.81327 14.5147 4.80988C14.4283 4.81012 14.423 4.89665 14.428 4.92962C14.4208 4.93568 14.4164 5.09202 14.5345 5.13516Z" fill="white"/>
<path d="M14.6416 4.26297C14.698 4.40234 14.5984 4.53517 14.6572 4.55456C14.7115 4.57613 14.7866 4.41058 14.8149 4.25788C14.8477 4.13426 14.7475 3.88097 14.6055 3.82861C14.5948 3.82643 14.5835 3.8257 14.5719 3.82546C14.4908 3.82328 14.401 3.86836 14.436 3.95804C14.4153 4.00652 14.6099 4.17232 14.6416 4.26297Z" fill="white"/>
<path d="M8.73737 4.93262H8.73847C8.73875 4.93262 8.7393 4.93359 8.73957 4.93359C8.73985 4.93359 8.7404 4.93359 8.74067 4.93359L8.74177 4.93456C8.77177 4.95225 9.14247 4.95201 9.18347 4.93553C9.18375 4.93529 9.18457 4.93456 9.18457 4.93456H9.18567V4.93359C9.31309 4.89214 9.91743 4.28375 9.91743 4.28375C9.88606 4.26024 9.85716 4.24279 9.82579 4.21903C9.79222 4.19334 9.79579 4.16837 9.82579 4.14268C9.9755 4.06584 9.92816 3.89714 9.85001 3.82055C9.78534 3.79485 9.72424 3.78637 9.66948 3.78879C9.61471 3.79122 9.56628 3.80503 9.525 3.8237C9.42014 3.91217 9.39538 4.05421 9.47821 4.14268C9.55857 4.17613 9.63893 4.24739 9.58527 4.2869C9.35767 4.50093 8.76544 4.85869 8.73572 4.9239C8.73544 4.92438 8.73462 4.92559 8.73462 4.92608V4.92826V4.92923C8.73489 4.92971 8.73544 4.93092 8.73572 4.93141C8.73627 4.93165 8.73737 4.93238 8.73737 4.93262ZM9.6337 3.97883C9.63618 3.97834 9.63838 3.9781 9.64086 3.97786C9.67773 3.97446 9.72259 4.00452 9.74433 4.04669C9.76772 4.09178 9.75589 4.13492 9.71791 4.14316C9.67993 4.15141 9.6304 4.12159 9.60728 4.07627C9.58416 4.03094 9.59572 3.98707 9.6337 3.97883Z" fill="white"/>
<path d="M13.1685 4.31544C13.434 4.62982 13.6894 4.94565 13.9363 5.27263C13.9751 5.51526 14.0034 5.7528 14.0216 5.98913C14.0615 6.5076 14.0736 7.15283 14.0373 7.69893C14.1476 7.70281 14.3243 7.54211 14.3862 7.30675C14.4264 6.98122 14.3719 6.31708 14.3681 6.12487C14.3653 6.04512 14.3598 5.94986 14.3538 5.85024C14.6408 6.26327 14.9193 6.70102 15.1926 7.18144C15.2922 7.13974 15.2702 6.64552 15.2118 6.57619C14.9931 6.16147 14.6909 5.75208 14.5946 5.59477C14.5599 5.5378 14.4413 5.37928 14.3009 5.19628C14.2751 4.93523 14.247 4.71393 14.2288 4.64727C14.1837 4.37119 14.3576 4.6783 14.3334 4.51784C14.277 4.24224 14.1042 4.05488 13.9002 3.80231C13.8345 3.72014 13.8358 3.70342 13.7343 3.82243C13.6735 3.94362 13.6743 4.0447 13.6922 4.13923C13.6655 4.10505 13.6325 4.06457 13.5851 4.01416C13.409 3.88109 13.398 3.87381 13.2519 3.76498C13.2056 3.73614 13.1178 3.69178 13.051 3.69711C13.0108 3.70027 12.9786 3.72111 12.9667 3.77347C12.9508 3.8966 12.959 3.9635 12.9824 4.06603C12.9998 4.13462 13.1129 4.24903 13.1685 4.31544ZM13.7307 4.29678C13.7376 4.32344 13.7442 4.35011 13.7489 4.37725C13.764 4.43591 13.7772 4.49433 13.791 4.55202C13.7326 4.48124 13.6842 4.42403 13.6633 4.40367C13.5312 4.26551 13.666 4.31302 13.7307 4.29678Z" fill="white"/>
<path d="M10.4701 5.2898C10.655 5.35718 10.7722 5.04717 10.8479 4.70783C10.8996 4.61257 10.9393 4.60166 10.966 4.65062C10.9591 5.10195 11.0028 5.20254 11.1344 5.33949C11.4283 5.53922 11.6713 5.3647 11.6903 5.34797C11.7093 5.33125 11.919 5.14655 11.919 5.14655C11.9699 5.09928 12.0373 5.09662 12.1092 5.13807C12.1791 5.19406 12.17 5.29053 12.3197 5.35743C12.4457 5.40178 12.7146 5.36833 12.7771 5.27259C12.861 5.14582 12.8814 5.10219 12.9202 5.0542C12.9802 4.98391 13.0825 5.01518 13.0825 5.03723C13.0729 5.0765 13.0126 5.11504 13.0536 5.18557C13.1249 5.2326 13.1414 5.2023 13.1835 5.19188C13.3327 5.1291 13.4447 4.84429 13.4447 4.84429C13.4513 4.73813 13.3828 4.74613 13.3388 4.76794C13.2815 4.79872 13.2779 4.80915 13.2207 4.83993C13.1478 4.84938 13.0066 4.8918 12.9367 4.79654C12.8654 4.68189 12.8649 4.52216 12.8104 4.40654C12.8104 4.39806 12.7151 4.22475 12.8032 4.2136C12.8478 4.22087 12.9433 4.24269 12.9584 4.17215C13.0052 4.10356 12.8577 3.90892 12.7575 3.81075C12.6706 3.72664 12.5503 3.71622 12.4339 3.80227C12.3524 3.86844 12.3645 3.94213 12.3483 4.01218C12.3277 4.09265 12.3315 4.19203 12.4243 4.29844C12.5057 4.43975 12.6535 4.62105 12.6048 4.87726C12.6048 4.87726 12.5189 4.99918 12.3678 4.98318C12.3048 4.97106 12.2022 4.94706 12.1477 4.59197C12.1064 4.32316 12.1581 3.94673 12.0285 3.77051C11.9994 3.7041 11.9743 3.63938 11.9322 3.64447C11.9072 3.64738 11.8763 3.67574 11.8334 3.7441C11.8029 3.8156 11.6708 3.9237 11.766 4.14694C11.8439 4.2885 11.8761 4.51828 11.8406 4.77448C11.7866 4.8472 11.7742 4.87241 11.7032 4.94512C11.6036 5.03941 11.496 5.01518 11.4132 4.98003C11.3358 4.93422 11.275 4.91071 11.2398 4.76479C11.2461 4.53258 11.2615 4.15228 11.2134 4.07156C11.1424 3.94649 11.0251 3.99133 10.9751 4.02914C10.7345 4.22281 10.6156 4.55003 10.543 4.81036C10.4764 5.00015 10.4051 4.94513 10.3553 4.86853C10.2337 4.76818 10.2251 3.98382 10.0784 4.11277C9.84398 4.70468 10.2138 5.35282 10.4701 5.2898Z" fill="white"/>
<path d="M11.5074 4.17446C11.5985 3.95801 11.5988 3.86566 11.6048 3.7738C11.5905 3.70375 11.5561 3.67006 11.5171 3.67321C11.478 3.67611 11.4345 3.71635 11.399 3.79416C11.3687 3.8533 11.3316 4.16186 11.3376 4.16186C11.3134 4.25372 11.4466 4.29251 11.5074 4.17446Z" fill="white"/>
<path d="M10.5567 4.12386C10.6085 4.09041 10.6261 4.06883 10.6434 4.0126C10.6649 3.91807 10.5306 4.0572 10.5135 3.95225C10.4835 3.85456 10.5694 3.81457 10.6509 3.72004C10.6528 3.67568 10.6536 3.63932 10.6209 3.63835C10.606 3.63787 10.5837 3.64538 10.5523 3.66162C10.4819 3.70331 10.3424 3.83129 10.3382 3.97842C10.3338 4.06156 10.3162 4.06132 10.3779 4.11416C10.4222 4.17088 10.4667 4.1653 10.5567 4.12386Z" fill="white"/>
</svg>
